<svg xmlns="http://www.w3.org/2000/svg" viewBox="0 0 420 900">
  <defs>
    <linearGradient id="wall" x1="0" y1="900" x2="0" y2="0">
      <stop offset="0" stop-color="#01040b" stop-opacity=".98"/>
      <stop offset=".45" stop-color="#041523" stop-opacity=".94"/>
      <stop offset=".78" stop-color="#0c3446" stop-opacity=".68"/>
      <stop offset="1" stop-color="#27737a" stop-opacity=".28"/>
    </linearGradient>
    <linearGradient id="rim" x1="0" y1="0" x2="1" y2="0">
      <stop offset="0" stop-color="#a6f3eb" stop-opacity=".14"/>
      <stop offset=".5" stop-color="#58c5c4" stop-opacity=".08"/>
      <stop offset="1" stop-color="#03101a" stop-opacity="0"/>
    </linearGradient>
  </defs>
  <path fill="url(#wall)" d="M0 900V0h314c-46 54-36 98-72 144-28 36-74 48-62 100 10 46 60 58 52 116-8 56-66 76-58 132 8 54 70 76 52 134-16 52-82 60-92 122-8 50 36 82 8 152H0Z"/>
  <path fill="url(#rim)" d="M296 0c-40 58-28 106-64 154-28 38-72 50-62 88 12 44 62 52 54 112-8 58-66 76-58 136 8 58 68 78 48 132-18 52-78 62-88 120-8 52 32 92 8 158h38c30-70-12-110 0-158 14-54 76-68 92-122 18-60-40-80-48-132-8-56 52-78 60-136 8-62-42-74-54-114-10-36 34-48 64-88 36-50 24-94 66-150h-56Z"/>
  <g fill="#c7fff2" opacity=".1">
    <circle cx="238" cy="210" r="3"/>
    <circle cx="194" cy="388" r="2.4"/>
    <circle cx="230" cy="566" r="2"/>
    <circle cx="166" cy="730" r="2.8"/>
  </g>
</svg>
