<svg xmlns="http://www.w3.org/2000/svg" viewBox="0 0 980 520">
  <defs>
    <linearGradient id="stone" x1="0" y1="520" x2="0" y2="0">
      <stop offset="0" stop-color="#020611" stop-opacity=".96"/>
      <stop offset=".46" stop-color="#092438" stop-opacity=".86"/>
      <stop offset=".78" stop-color="#1b6171" stop-opacity=".46"/>
      <stop offset="1" stop-color="#79d6d4" stop-opacity=".16"/>
    </linearGradient>
    <linearGradient id="edge" x1="0" y1="0" x2="1" y2="0">
      <stop offset="0" stop-color="#d8fff7" stop-opacity=".2"/>
      <stop offset=".5" stop-color="#8fe1dc" stop-opacity=".1"/>
      <stop offset="1" stop-color="#ffffff" stop-opacity=".04"/>
    </linearGradient>
    <filter id="soft">
      <feGaussianBlur stdDeviation="1.3"/>
    </filter>
  </defs>
  <path fill="url(#stone)" d="M0 520V210c54-22 88-52 144-48 66 5 86-62 158-58 82 5 102 56 166 32 88-34 130-116 218-94 72 18 86 86 154 82 48-3 82-32 140-6v402H0Z"/>
  <g fill="#0f3d55" opacity=".62">
    <path d="M72 226h218l38 34-26 48H92l-36-28 16-54Z"/>
    <path d="M372 174h258l42 36-24 56H394l-44-34 22-58Z"/>
    <path d="M612 286h284l54 42-34 74H636l-48-42 24-74Z"/>
    <path d="M132 372h340l58 46-38 80H146l-54-42 40-84Z"/>
  </g>
  <g fill="url(#edge)" opacity=".86" filter="url(#soft)">
    <path d="M74 226c70 12 142 10 216 0l38 34c-88 16-174 14-272 20l16-54Z"/>
    <path d="M372 174c82 16 166 14 258 0l42 36c-104 18-204 18-322 22l22-58Z"/>
    <path d="M612 286c98 16 186 14 284 0l54 42c-116 20-220 18-362 32l24-74Z"/>
    <path d="M132 372c112 18 226 18 340 0l58 46c-142 22-284 24-438 38l40-84Z"/>
  </g>
  <g fill="#b5f3e9" opacity=".16">
    <circle cx="178" cy="248" r="3"/>
    <circle cx="438" cy="198" r="2"/>
    <circle cx="724" cy="314" r="2.6"/>
    <circle cx="290" cy="398" r="2.4"/>
    <circle cx="824" cy="144" r="2"/>
  </g>
</svg>
