<svg xmlns="http://www.w3.org/2000/svg" viewBox="0 0 760 360">
  <defs>
    <linearGradient id="coral" x1="0" y1="360" x2="0" y2="0">
      <stop offset="0" stop-color="#03131c" stop-opacity=".84"/>
      <stop offset=".58" stop-color="#0c6a72" stop-opacity=".58"/>
      <stop offset="1" stop-color="#f1aab7" stop-opacity=".42"/>
    </linearGradient>
    <linearGradient id="kelp" x1="0" y1="360" x2="0" y2="0">
      <stop offset="0" stop-color="#04212a" stop-opacity=".88"/>
      <stop offset="1" stop-color="#72e2bb" stop-opacity=".42"/>
    </linearGradient>
  </defs>
  <path fill="#03121b" opacity=".7" d="M0 360V258c76-30 134 10 204-12 76-24 112-64 204-38 92 27 154-26 238 0 48 14 78 42 114 38v114H0Z"/>
  <g fill="none" stroke="url(#kelp)" stroke-linecap="round">
    <path d="M86 292c-14-58 10-112 44-160" stroke-width="10"/>
    <path d="M128 300c-4-78 44-126 30-196" stroke-width="8"/>
    <path d="M594 300c24-72-18-126 26-206" stroke-width="9"/>
    <path d="M650 304c-18-62 20-110 8-170" stroke-width="7"/>
  </g>
  <g fill="none" stroke="url(#coral)" stroke-linecap="round" stroke-linejoin="round">
    <path d="M240 300c-6-44 8-78 42-104m-30 54c-30-14-46-36-48-68m58 54c32-14 48-38 52-74" stroke-width="12"/>
    <path d="M448 306c10-58-6-96-48-132m32 58c34-10 56-34 66-70m-82 82c-30-12-50-32-60-62" stroke-width="10"/>
    <path d="M516 314c-4-40 12-74 44-102m-26 48c30-8 48-30 56-62" stroke-width="8"/>
  </g>
  <g fill="#f6cc7d" opacity=".45">
    <ellipse cx="176" cy="284" rx="28" ry="8"/>
    <ellipse cx="320" cy="274" rx="36" ry="9"/>
    <ellipse cx="536" cy="286" rx="30" ry="8"/>
    <ellipse cx="696" cy="270" rx="24" ry="7"/>
  </g>
  <g fill="#b8fff0" opacity=".2">
    <circle cx="112" cy="170" r="4"/>
    <circle cx="282" cy="198" r="3"/>
    <circle cx="424" cy="176" r="3"/>
    <circle cx="620" cy="148" r="4"/>
  </g>
</svg>
