<svg xmlns="http://www.w3.org/2000/svg" viewBox="0 0 1100 260" preserveAspectRatio="none">
  <defs>
    <linearGradient id="ribbon" x1="0" y1="0" x2="1" y2="0">
      <stop offset="0" stop-color="#8ff2ed" stop-opacity="0"/>
      <stop offset=".25" stop-color="#bdfdf7" stop-opacity=".26"/>
      <stop offset=".55" stop-color="#f8e7b2" stop-opacity=".18"/>
      <stop offset="1" stop-color="#8ff2ed" stop-opacity="0"/>
    </linearGradient>
    <filter id="blur">
      <feGaussianBlur stdDeviation="2.8"/>
    </filter>
  </defs>
  <g fill="none" stroke="url(#ribbon)" stroke-linecap="round" filter="url(#blur)">
    <path d="M-40 88C120 22 224 128 360 84c152-48 230-86 400-40 126 34 210 48 380-16" stroke-width="7"/>
    <path d="M-20 154c136-58 278 18 420-24 132-38 250-70 404-14 116 42 196 50 330-4" stroke-width="4" opacity=".72"/>
    <path d="M30 212c106-38 206 12 330-28 158-50 304-44 466 6 118 36 188 28 294-20" stroke-width="3" opacity=".54"/>
  </g>
</svg>
