<svg xmlns="http://www.w3.org/2000/svg" viewBox="0 0 760 180">
  <defs>
    <linearGradient id="fish" x1="0" y1="0" x2="1" y2="1">
      <stop offset="0" stop-color="#fff0a8" stop-opacity=".88"/>
      <stop offset=".52" stop-color="#a3fff1" stop-opacity=".7"/>
      <stop offset="1" stop-color="#1e6072" stop-opacity=".5"/>
    </linearGradient>
    <filter id="soft">
      <feGaussianBlur stdDeviation=".6"/>
    </filter>
  </defs>
  <g fill="url(#fish)" filter="url(#soft)">
    <path d="M32 92c18-12 42-12 60 0-18 12-42 12-60 0Zm58 0 18-11v22L90 92Z"/>
    <path d="M116 58c14-9 32-9 46 0-14 9-32 9-46 0Zm44 0 14-9v18l-14-9Z" opacity=".72"/>
    <path d="M204 118c16-10 36-10 52 0-16 10-36 10-52 0Zm50 0 16-10v20l-16-10Z" opacity=".78"/>
    <path d="M302 76c20-13 46-13 66 0-20 13-46 13-66 0Zm64 0 20-12v24l-20-12Z" opacity=".84"/>
    <path d="M420 104c15-10 34-10 49 0-15 10-34 10-49 0Zm47 0 15-9v18l-15-9Z" opacity=".62"/>
    <path d="M514 52c17-11 38-11 55 0-17 11-38 11-55 0Zm52 0 16-10v20l-16-10Z" opacity=".7"/>
    <path d="M628 118c21-14 48-14 69 0-21 14-48 14-69 0Zm66 0 21-13v26l-21-13Z" opacity=".76"/>
  </g>
  <g fill="#fff6ca" opacity=".72">
    <circle cx="48" cy="91" r="1.8"/>
    <circle cx="316" cy="75" r="1.8"/>
    <circle cx="645" cy="117" r="1.8"/>
  </g>
  <g stroke="#d9fff8" stroke-linecap="round" opacity=".18">
    <path d="M94 100c42 16 88 12 138-10" />
    <path d="M384 84c46 14 90 8 132-18" />
  </g>
</svg>
