<svg xmlns="http://www.w3.org/2000/svg" viewBox="0 0 620 240">
  <defs>
    <linearGradient id="fishA" x1="0" y1="0" x2="1" y2="1">
      <stop offset="0" stop-color="#fff2a8" stop-opacity=".82"/>
      <stop offset=".52" stop-color="#90f1e7" stop-opacity=".62"/>
      <stop offset="1" stop-color="#24566e" stop-opacity=".5"/>
    </linearGradient>
    <linearGradient id="fishB" x1="0" y1="0" x2="1" y2="1">
      <stop offset="0" stop-color="#ffb98d" stop-opacity=".72"/>
      <stop offset=".66" stop-color="#c8fff4" stop-opacity=".5"/>
      <stop offset="1" stop-color="#174157" stop-opacity=".48"/>
    </linearGradient>
    <filter id="glow">
      <feGaussianBlur stdDeviation="1.6" result="b"/>
      <feMerge>
        <feMergeNode in="b"/>
        <feMergeNode in="SourceGraphic"/>
      </feMerge>
    </filter>
  </defs>
  <g filter="url(#glow)">
    <g fill="url(#fishA)">
      <path d="M50 106c30-20 70-20 100 0-30 20-70 20-100 0Zm96 0 30-18v36l-30-18Z"/>
      <path d="M250 60c26-17 58-17 84 0-26 17-58 17-84 0Zm80 0 24-15v30l-24-15Z" opacity=".75"/>
      <path d="M420 116c34-22 78-22 112 0-34 22-78 22-112 0Zm108 0 32-20v40l-32-20Z" opacity=".8"/>
      <path d="M182 178c22-14 50-14 72 0-22 14-50 14-72 0Zm70 0 20-12v24l-20-12Z" opacity=".56"/>
    </g>
    <g fill="url(#fishB)">
      <path d="M122 52c18-12 42-12 60 0-18 12-42 12-60 0Zm58 0 18-11v22l-18-11Z" opacity=".72"/>
      <path d="M330 166c25-16 56-16 81 0-25 16-56 16-81 0Zm78 0 23-14v28l-23-14Z" opacity=".7"/>
      <path d="M480 58c17-11 38-11 55 0-17 11-38 11-55 0Zm52 0 16-10v20l-16-10Z" opacity=".58"/>
    </g>
  </g>
  <g fill="#fff7c7" opacity=".72">
    <circle cx="76" cy="104" r="2.2"/>
    <circle cx="274" cy="59" r="1.8"/>
    <circle cx="454" cy="114" r="2.2"/>
    <circle cx="344" cy="165" r="1.8"/>
  </g>
</svg>
