<svg xmlns="http://www.w3.org/2000/svg" viewBox="0 0 1200 220" preserveAspectRatio="none">
  <defs>
    <linearGradient id="foam-fill" x1="0" y1="0" x2="0" y2="1">
      <stop offset="0" stop-color="#fffaf0" stop-opacity=".82"/>
      <stop offset=".42" stop-color="#e8fffb" stop-opacity=".54"/>
      <stop offset="1" stop-color="#9cdde7" stop-opacity=".08"/>
    </linearGradient>
    <linearGradient id="foam-line" x1="0" y1="0" x2="1" y2="0">
      <stop offset="0" stop-color="#ffffff" stop-opacity=".3"/>
      <stop offset=".24" stop-color="#ffffff" stop-opacity=".58"/>
      <stop offset=".54" stop-color="#e9fffb" stop-opacity=".44"/>
      <stop offset=".78" stop-color="#ffffff" stop-opacity=".5"/>
      <stop offset="1" stop-color="#ffffff" stop-opacity=".3"/>
    </linearGradient>
  </defs>
  <path fill="url(#foam-fill)" d="M0 82 C110 48 190 112 300 82 S490 52 600 82 S790 112 900 82 S1090 52 1200 82 V220 H0 Z"/>
  <path fill="url(#foam-line)" opacity=".62" d="M0 78 C100 112 200 44 300 78 S500 112 600 78 S800 44 900 78 S1100 112 1200 78 V112 C1100 86 1000 136 900 112 S700 86 600 112 S400 136 300 112 S100 86 0 112 Z"/>
  <g fill="#ffffff" opacity=".45">
    <ellipse cx="122" cy="112" rx="42" ry="12"/>
    <ellipse cx="286" cy="92" rx="26" ry="8"/>
    <ellipse cx="446" cy="122" rx="38" ry="10"/>
    <ellipse cx="684" cy="104" rx="54" ry="12"/>
    <ellipse cx="914" cy="92" rx="36" ry="9"/>
    <ellipse cx="1088" cy="126" rx="48" ry="10"/>
  </g>
</svg>
