<svg xmlns="http://www.w3.org/2000/svg" viewBox="0 0 620 280">
  <defs>
    <linearGradient id="reef" x1="0" y1="280" x2="0" y2="0">
      <stop offset="0" stop-color="#010712" stop-opacity=".95"/>
      <stop offset=".65" stop-color="#06263a" stop-opacity=".78"/>
      <stop offset="1" stop-color="#12646f" stop-opacity=".34"/>
    </linearGradient>
  </defs>
  <path fill="url(#reef)" d="M0 280V176c46-18 68-58 114-46 26 7 36 26 62 15 34-14 40-64 82-70 44-6 62 39 98 28 34-10 46-58 88-52 36 5 42 42 72 45 32 3 52-35 86-18 18 9 20 29 18 54v148H0Z"/>
  <path fill="#0aa69b" opacity=".12" d="M50 180c24-34 34-70 24-110 34 30 42 66 34 110H50Zm402-38c-8-48 8-88 46-122-8 46 0 86 28 122h-74Zm84 24c20-26 30-54 28-88 30 28 40 58 34 88h-62Z"/>
  <g fill="#f1bf55" opacity=".22">
    <circle cx="96" cy="168" r="3"/>
    <circle cx="188" cy="122" r="2.5"/>
    <circle cx="310" cy="96" r="2"/>
    <circle cx="486" cy="110" r="2.5"/>
    <circle cx="552" cy="164" r="2"/>
  </g>
</svg>
